PathFileType	4	(X/Y/Z)	5_coords_data.trc
DataRate	CameraRate	NumFrames	NumMarkers	Units	OrigDataRate	OrigDataStartFrame	OrigNumFrames
30.0	30.0	6	21	m	30.0	58	67
Frame#	Time	THUMB_TIP	THUMB_IP	THUMB_MCP	THUMB_CMC	INDEX_TIP	INDEX_DIP	INDEX_PIP	INDEX_MCP	MIDDLE_TIP	MIDDLE_DIP	MIDDLE_PIP	MIDDLE_MCP	RING_TIP	RING_DIP	RING_PIP	RING_MCP	PINKY_TIP	PINKY_DIP	PINKY_PIP	PINKY_MCP	WRIST
X1	Y1	Z1	X2	Y2	Z2	X3	Y3	Z3	X4	Y4	Z4	X5	Y5	Z5	X6	Y6	Z6	X7	Y7	Z7	X8	Y8	Z8	X9	Y9	Z9	X10	Y10	Z10	X11	Y11	Z11	X12	Y12	Z12	X13	Y13	Z13	X14	Y14	Z14	X15	Y15	Z15	X16	Y16	Z16	X17	Y17	Z17	X18	Y18	Z18	X19	Y19	Z19	X20	Y20	Z20	X21	Y21	Z21
57	1.9	0.00579571008682251	-0.09054239654541016	0.9830579833984375	-0.007641089916229248	-0.08141130065917969	1.0041400146484376	-0.023882099151611328	-0.0830624008178711	1.0306600341796874	-0.03474349975585937	-0.05580739974975586	1.0434300537109376	-0.007105460166931152	-0.08688059997558593	0.9225700073242188	-0.020348699569702148	-0.0856864013671875	0.9404420166015625	-0.034687301635742185	-0.08374669647216797	0.9591599731445313	-0.05160990142822266	-0.07762100219726563	0.9929970092773438	6.7761696875095e-05	-0.06013940048217774	0.9115289916992187	-0.015109100341796876	-0.0610786018371582	0.9298460083007812	-0.03442990112304688	-0.060629798889160154	0.952343994140625	-0.0541422004699707	-0.05709239959716797	0.9867410278320312	0.00044003298878669703	-0.03804010009765625	0.919323974609375	-0.016622400283813475	-0.036908401489257815	0.9343049926757813	-0.03657870101928711	-0.03661109924316406	0.9533319702148437	-0.05214039993286133	-0.03780970001220703	0.9886900024414063	-0.00905070972442627	-0.016378400802612304	0.937833984375	-0.023379899978637694	-0.016040700912475586	0.9513200073242187	-0.0353317985534668	-0.01725869941711426	0.965739990234375	-0.044788299560546876	-0.020720600128173828	0.9917150268554688	-0.05675	-0.029775899887084963	1.0605400390625
58	1.9333333333333333	0.006108240127563476	-0.09014499664306641	0.9831420288085938	-0.007521269798278808	-0.08166729736328125	1.00447998046875	-0.02401530075073242	-0.0831614990234375	1.0308399658203125	-0.034590801239013674	-0.055938701629638675	1.0433599853515625	-0.00722314977645874	-0.08669930267333985	0.92222998046875	-0.020383600234985352	-0.08551270294189453	0.9401920166015625	-0.03458449935913086	-0.08359500122070312	0.959	-0.051425098419189456	-0.07753549957275391	0.992885009765625	0.00031146198511123604	-0.05991960144042969	0.9113839721679687	-0.014816200256347656	-0.060898700714111326	0.929823974609375	-0.03411050033569336	-0.060493698120117186	0.9523460083007812	-0.054001399993896484	-0.05702410125732422	0.9868740234375	0.00047377899289131106	-0.03782559967041016	0.919010986328125	-0.016473100662231444	-0.036751701354980466	0.9341170043945313	-0.03639479827880859	-0.03651259994506836	0.9532650146484375	-0.05185219955444336	-0.03770619964599609	0.9886810302734375	-0.009190959930419922	-0.01606329917907715	0.93752197265625	-0.02344350051879883	-0.015812000274658202	0.9510759887695313	-0.03532419967651367	-0.01707990074157715	0.9655120239257813	-0.04461859893798828	-0.020565500259399416	0.9915830078125	-0.05650040054321289	-0.029739299774169923	1.06031005859375
59	1.9666666666666666	0.006095260143280029	-0.08940630340576172	0.9828740234375	-0.00772750997543335	-0.0820290985107422	1.0048200073242188	-0.023961599349975587	-0.08348719787597657	1.03106005859375	-0.03436759948730469	-0.05611100006103516	1.0435699462890624	-0.0069470200538635256	-0.08650679779052735	0.922166015625	-0.020180299758911134	-0.085364501953125	0.940177978515625	-0.034423599243164064	-0.0834801025390625	0.9589660034179688	-0.05111370086669922	-0.0775	0.9927949829101562	0.000566761016845703	-0.05986069869995117	0.9113259887695313	-0.014588399887084961	-0.06082619857788086	0.9297760009765625	-0.033893798828125	-0.06040530014038086	0.952301025390625	-0.05372549819946289	-0.05700400161743164	0.9868270263671876	0.0005855309963226311	-0.0377760009765625	0.918864990234375	-0.01632349967956543	-0.03670320129394531	0.9339530029296875	-0.03623189926147461	-0.03644609832763672	0.9531500244140625	-0.0515973014831543	-0.037664100646972655	0.988551025390625	-0.009047579765319825	-0.015915300369262694	0.9373779907226563	-0.023277599334716795	-0.015682100296020508	0.9509769897460938	-0.03514929962158203	-0.016986799240112305	0.96547802734375	-0.044360401153564454	-0.02052519989013672	0.9915919799804688	-0.056320499420166016	-0.029673500061035155	1.060300048828125
60	2.0	0.0061438798904418935	-0.08906999969482422	0.9830390014648438	-0.00790431022644043	-0.08259519958496093	1.0053300170898438	-0.024292600631713866	-0.08391100311279297	1.0312900390625	-0.03433039855957031	-0.056259700775146484	1.0438599853515624	-0.0065420899391174315	-0.08627549743652344	0.9222210083007812	-0.019834699630737303	-0.08515570068359375	0.9401510009765625	-0.034127201080322266	-0.08337049865722657	0.9589229736328125	-0.050794300079345704	-0.07744429779052735	0.9928049926757813	0.0011805499792099	-0.059775001525878904	0.9115399780273438	-0.014015399932861328	-0.060739898681640626	0.9299169921875	-0.03338100051879883	-0.06032120132446289	0.952302001953125	-0.05332820129394531	-0.05689310073852539	0.9868740234375	0.0011349899768829342	-0.037689498901367184	0.9190269775390625	-0.01579979991912842	-0.036642101287841795	0.9340239868164063	-0.035753200531005856	-0.03641830062866211	0.9531829833984375	-0.05131169891357422	-0.037617599487304684	0.988468994140625	-0.008598210334777832	-0.01583940029144287	0.9374710083007812	-0.022904199600219728	-0.015598699569702149	0.951052978515625	-0.03478409957885742	-0.016925100326538087	0.96547998046875	-0.04408169937133789	-0.020487400054931642	0.9915130004882813	-0.056032798767089845	-0.02960190010070801	1.0602099609375
61	2.033333333333333	0.00566703987121582	-0.0895739974975586	0.9831840209960937	-0.008267230033874511	-0.08324960327148437	1.0056400146484374	-0.02470590019226074	-0.0840886001586914	1.0315400390625	-0.03436399841308594	-0.05633050155639648	1.0441099853515625	-0.0061357998847961425	-0.08614790344238281	0.922364990234375	-0.019551200866699217	-0.08505030059814453	0.9402630004882813	-0.03391429901123047	-0.08324970245361328	0.95906201171875	-0.05050590133666992	-0.07741010284423828	0.9929229736328125	0.00175285005569458	-0.05968960189819336	0.9117730102539062	-0.01356779956817627	-0.06067800140380859	0.9301209716796875	-0.033085899353027345	-0.06026060104370117	0.9524609985351562	-0.05295980072021484	-0.05684519958496094	0.9869359741210938	0.001596889972686767	-0.03768259811401367	0.9191920166015625	-0.015353300094604493	-0.03663869857788086	0.93418701171875	-0.03538050079345703	-0.03640119934082031	0.9532890014648437	-0.05084320068359375	-0.03764279937744141	0.9885640258789062	-0.008126310348510742	-0.01582569980621338	0.9376409912109375	-0.022475500106811524	-0.01559980010986328	0.9511409912109375	-0.03434709930419922	-0.01690180015563965	0.965573974609375	-0.043672298431396486	-0.020473600387573242	0.991594970703125	-0.05590530014038086	-0.029478700637817382	1.0604200439453124
62	2.066666666666667	0.004612979888916016	-0.09089810180664062	0.983156005859375	-0.009067150115966796	-0.08422019958496094	1.00572998046875	-0.025161300659179688	-0.08431390380859374	1.0319100341796874	-0.034387199401855466	-0.05657509994506836	1.0444300537109374	-0.00592130994796753	-0.08611180114746093	0.9226320190429688	-0.0193351993560791	-0.08504389953613281	0.9403900146484375	-0.033691799163818356	-0.08327200317382813	0.9591270141601562	-0.05035660171508789	-0.07737290191650391	0.99314501953125	0.001984590053558349	-0.05962120056152344	0.9118809814453125	-0.013337100028991699	-0.06063639831542969	0.930239990234375	-0.03281589889526367	-0.06026160049438477	0.9525869750976562	-0.052744598388671876	-0.056839500427246094	0.98710498046875	0.001754850029945373	-0.03758330154418945	0.9193179931640625	-0.01521940040588379	-0.03656959915161133	0.9343330078125	-0.035209300994873044	-0.0363578987121582	0.9534000244140625	-0.05055350112915039	-0.03757519912719726	0.9887949829101562	-0.008032580375671387	-0.015727800369262697	0.937697998046875	-0.022406700134277344	-0.01552750015258789	0.9512470092773437	-0.03428900146484375	-0.016858999252319335	0.9657059936523438	-0.043566001892089846	-0.02043210029602051	0.9916510009765624	-0.05576570129394531	-0.02945170021057129	1.0605799560546876
